<svg width="22" height="27" viewBox="0 0 22 27" fill="none" xmlns="http://www.w3.org/2000/svg">
<g clip-path="url(#clip0_48_215)">
<path d="M0 20.8544C0 22.0972 0.3147 23.0292 0.9441 23.6506C1.5735 24.2719 2.5176 24.5826 3.7764 24.5826H17.9318C19.0062 24.5826 19.8441 24.2719 20.4455 23.6506C21.0468 23.0292 21.3475 22.0972 21.3475 20.8544V8.40669C21.3475 7.16393 21.0308 6.23185 20.3974 5.61047C19.7639 4.98909 18.8218 4.6784 17.5711 4.6784H15.6468C15.6307 3.83653 15.3962 3.06081 14.9432 2.35123C14.4902 1.64165 13.8908 1.07238 13.1452 0.643431C12.3996 0.214477 11.5737 0 10.6677 0C9.7617 0 8.93587 0.214477 8.19021 0.643431C7.44455 1.07238 6.84723 1.64165 6.39822 2.35123C5.94923 3.06081 5.7127 3.83653 5.68865 4.6784H3.7764C2.5176 4.6784 1.5735 4.98909 0.9441 5.61047C0.3147 6.23185 0 7.16393 0 8.40669V20.8544ZM7.62496 4.6784C7.64099 4.15724 7.78531 3.68018 8.05792 3.24722C8.33052 2.81426 8.69333 2.4695 9.14634 2.21293C9.59935 1.95636 10.1065 1.82807 10.6677 1.82807C11.237 1.82807 11.7481 1.95636 12.2011 2.21293C12.6542 2.4695 13.0149 2.81426 13.2835 3.24722C13.5521 3.68018 13.6945 4.15724 13.7105 4.6784H7.62496Z" fill="#FFF4CF"/>
</g>
<defs>
<clipPath id="clip0_48_215">
<rect width="21.3475" height="27" fill="white"/>
</clipPath>
</defs>
</svg>
