<svg width="100" height="100" viewBox="0 0 100 100" fill="none" xmlns="http://www.w3.org/2000/svg">
<g clip-path="url(#clip0_59_148)">
<path d="M49.9756 99.9998C56.8025 99.9998 63.2291 98.6934 69.2554 96.0804C75.282 93.4672 80.598 89.8578 85.2034 85.2524C89.8092 80.6466 93.4185 75.3306 96.0314 69.3044C98.6447 63.2777 99.9513 56.8511 99.9513 50.0244C99.9513 43.1977 98.6447 36.7711 96.0314 30.7446C93.4185 24.7182 89.8092 19.4021 85.2034 14.7965C80.598 10.191 75.2738 6.5816 69.2308 3.96849C63.1881 1.35538 56.7534 0.0488281 49.9266 0.0488281C43.0999 0.0488281 36.6733 1.35538 30.6468 3.96849C24.6203 6.5816 19.3125 10.191 14.7232 14.7965C10.1339 19.4021 6.53276 24.7182 3.91966 30.7446C1.30655 36.7711 0 43.1977 0 50.0244C0 56.8511 1.30655 63.2777 3.91966 69.3044C6.53276 75.3306 10.1421 80.6466 14.7477 85.2524C19.3533 89.8578 24.6693 93.4672 30.6958 96.0804C36.7223 98.6934 43.1489 99.9998 49.9756 99.9998Z" fill="#6FBC29"/>
<path d="M26.8987 75.6982C25.8861 75.6982 25.1348 75.396 24.6449 74.7916C24.1549 74.1875 23.9099 73.4281 23.9099 72.5133C23.9099 71.1416 24.4407 69.3533 25.5023 67.1484C26.5639 64.9436 28.1644 62.7305 30.3039 60.5092C32.4434 58.2883 35.1463 56.4266 38.4127 54.9241C41.679 53.4213 45.5334 52.6699 49.9757 52.6699C54.4181 52.6699 58.2723 53.4213 61.5385 54.9241C64.805 56.4266 67.5079 58.2883 69.6472 60.5092C71.7869 62.7305 73.3875 64.9436 74.4492 67.1484C75.5105 69.3533 76.0411 71.1416 76.0411 72.5133C76.0411 73.4281 75.7963 74.1875 75.3066 74.7916C74.8166 75.396 74.0652 75.6982 73.0524 75.6982H26.8987ZM49.9757 48.5055C47.5912 48.5055 45.4191 47.8849 43.4592 46.6437C41.4994 45.4025 39.9315 43.7121 38.7556 41.5726C37.5797 39.4331 36.9918 37.0242 36.9918 34.3458C36.9918 31.8306 37.5797 29.5197 38.7556 27.4129C39.9315 25.3061 41.4994 23.6239 43.4592 22.3663C45.4191 21.1088 47.5912 20.48 49.9757 20.48C52.36 20.48 54.5322 21.1088 56.4922 22.3663C58.4519 23.6239 60.0198 25.3061 61.1958 27.4129C62.3715 29.5197 62.9594 31.8306 62.9594 34.3458C62.9594 37.0242 62.3715 39.4413 61.1958 41.5972C60.0198 43.753 58.4519 45.4515 56.4922 46.6927C54.5322 47.9339 52.36 48.5382 49.9757 48.5055Z" fill="white"/>
</g>
<defs>
<clipPath id="clip0_59_148">
<rect width="99.9513" height="100" fill="white"/>
</clipPath>
</defs>
</svg>
