<svg width="24" height="29" viewBox="0 0 24 29" fill="none" xmlns="http://www.w3.org/2000/svg">
<path d="M6.1497 26.8536H17.207C18.0672 26.8536 18.7667 26.5964 19.3053 26.0819C19.8439 25.5674 20.1333 24.8761 20.1734 24.008L21.0054 6.47527H22.4524C22.7016 6.47527 22.9126 6.38483 23.0855 6.20395C23.2583 6.02308 23.3447 5.80805 23.3447 5.55884C23.3447 5.30964 23.2563 5.09661 23.0794 4.91976C22.9026 4.7429 22.6936 4.65447 22.4524 4.65447H0.904367C0.663202 4.65447 0.452184 4.74491 0.271311 4.92579C0.0904369 5.10666 0 5.31767 0 5.55884C0 5.80805 0.0904369 6.02308 0.271311 6.20395C0.452184 6.38483 0.663202 6.47527 0.904367 6.47527H2.35136L3.18337 24.02C3.22356 24.8882 3.51095 25.5775 4.04554 26.0879C4.58012 26.5984 5.2815 26.8536 6.1497 26.8536ZM6.31851 25.0328C5.97285 25.0328 5.68345 24.9163 5.45032 24.6831C5.21719 24.45 5.09259 24.1566 5.07652 23.8029L4.23243 6.47527H19.0641L18.2682 23.8029C18.2521 24.1647 18.1275 24.4601 17.8944 24.6892C17.6613 24.9183 17.3679 25.0328 17.0142 25.0328H6.31851ZM8.10313 22.9709C8.32822 22.9709 8.50909 22.9046 8.64574 22.772C8.78241 22.6393 8.85074 22.4684 8.85074 22.2594L8.47693 9.35718C8.47693 9.14817 8.40659 8.97936 8.26592 8.85074C8.12524 8.72212 7.94638 8.65781 7.72933 8.65781C7.50424 8.65781 7.32136 8.72413 7.18067 8.85677C7.03999 8.9894 6.97368 9.16023 6.98172 9.36924L7.34347 22.2594C7.3515 22.4765 7.42385 22.6494 7.56051 22.778C7.69717 22.9066 7.87804 22.9709 8.10313 22.9709ZM11.6724 22.9709C11.9055 22.9709 12.0944 22.9046 12.2391 22.772C12.3838 22.6393 12.4562 22.4684 12.4562 22.2594V9.36924C12.4562 9.16023 12.3838 8.9894 12.2391 8.85677C12.0944 8.72413 11.9055 8.65781 11.6724 8.65781C11.4473 8.65781 11.2624 8.72413 11.1177 8.85677C10.973 8.9894 10.9006 9.16023 10.9006 9.36924V22.2594C10.9006 22.4684 10.973 22.6393 11.1177 22.772C11.2624 22.9046 11.4473 22.9709 11.6724 22.9709ZM15.2536 22.9709C15.4707 22.9709 15.6476 22.9066 15.7842 22.778C15.9209 22.6494 15.9932 22.4765 16.0013 22.2594L16.3631 9.36924C16.3711 9.16023 16.3067 8.9894 16.1701 8.85677C16.0334 8.72413 15.8485 8.65781 15.6154 8.65781C15.3984 8.65781 15.2215 8.72212 15.0848 8.85074C14.9482 8.97936 14.8758 9.15219 14.8678 9.36924L14.506 22.2594C14.498 22.4684 14.5623 22.6393 14.699 22.772C14.8356 22.9046 15.0205 22.9709 15.2536 22.9709ZM6.37881 5.51061H8.29606V2.93015C8.29606 2.59252 8.40659 2.3192 8.62766 2.11018C8.84873 1.90118 9.14014 1.79668 9.50188 1.79668H13.8187C14.1805 1.79668 14.4719 1.90118 14.6929 2.11018C14.914 2.3192 15.0246 2.59252 15.0246 2.93015V5.51061H16.9418V2.80957C16.9418 1.94137 16.6745 1.25606 16.1399 0.75364C15.6054 0.251213 14.8758 0 13.9513 0H9.36924C8.44477 0 7.71525 0.251213 7.18067 0.75364C6.6461 1.25606 6.37881 1.94137 6.37881 2.80957V5.51061Z" fill="#FF3131"/>
</svg>
